HIERARCHY
ROOT Hips
{
	OFFSET 0.000000 0.000000 0.000000
	CHANNELS 6 Xposition Yposition Zposition Zrotation Yrotation Xrotation 
	JOINT LHipJoint
	{
		OFFSET 0.000000 0.000000 0.000000
		CHANNELS 3 Zrotation Yrotation Xrotation
		JOINT LeftUpLeg
		{
			OFFSET 1.363060 -1.794630 0.839290
			CHANNELS 3 Zrotation Yrotation Xrotation
			JOINT LeftLeg
			{
				OFFSET 2.448110 -6.726130 0.000000
				CHANNELS 3 Zrotation Yrotation Xrotation
				JOINT LeftFoot
				{
					OFFSET 2.562200 -7.039590 0.000000
					CHANNELS 3 Zrotation Yrotation Xrotation
					JOINT LeftToeBase
					{
						OFFSET 0.157640 -0.433110 2.322550
						CHANNELS 3 Zrotation Yrotation Xrotation
						End Site
						{
							OFFSET 0.000000 0.000000 0.000000
						}
					}
				}
			}
		}
	}
	JOINT RHipJoint
	{
		OFFSET 0.000000 0.000000 0.000000
		CHANNELS 3 Zrotation Yrotation Xrotation
		JOINT RightUpLeg
		{
			OFFSET -1.305520 -1.794630 0.839290
			CHANNELS 3 Zrotation Yrotation Xrotation
			JOINT RightLeg
			{
				OFFSET -2.542530 -6.985550 0.000000
				CHANNELS 3 Zrotation Yrotation Xrotation
				JOINT RightFoot
				{
					OFFSET -2.568260 -7.056230 0.000000
					CHANNELS 3 Zrotation Yrotation Xrotation
					JOINT RightToeBase
					{
						OFFSET -0.164730 -0.452590 2.363150
						CHANNELS 3 Zrotation Yrotation Xrotation
						End Site
						{
							OFFSET 0.000000 0.000000 0.000000
						}
					}
				}
			}
		}
	}
	JOINT LowerBack
	{
		OFFSET 0.000000 0.000000 0.000000
		CHANNELS 3 Zrotation Yrotation Xrotation
		JOINT Spine
		{
			OFFSET 0.028270 2.035590 -0.193380
			CHANNELS 3 Zrotation Yrotation Xrotation
			JOINT Spine1
			{
				OFFSET 0.056720 2.048850 -0.042750
				CHANNELS 3 Zrotation Yrotation Xrotation
				JOINT Neck
				{
					OFFSET 0.000000 0.000000 0.000000
					CHANNELS 3 Zrotation Yrotation Xrotation
					JOINT Neck1
					{
						OFFSET -0.054170 1.746240 0.172020
						CHANNELS 3 Zrotation Yrotation Xrotation
						JOINT Head
						{
							OFFSET 0.104070 1.761360 -0.123970
							CHANNELS 3 Zrotation Yrotation Xrotation
							End Site
							{
								OFFSET 0.000000 0.000000 0.000000
							}
						}
					}
				}
				JOINT LeftShoulder
				{
					OFFSET 0.000000 0.000000 0.000000
					CHANNELS 3 Zrotation Yrotation Xrotation
					JOINT LeftArm
					{
						OFFSET 3.362410 1.200890 -0.311210
						CHANNELS 3 Zrotation Yrotation Xrotation
						JOINT LeftForeArm
						{
							OFFSET 4.983000 -0.000000 -0.000000
							CHANNELS 3 Zrotation Yrotation Xrotation
							JOINT LeftHand
							{
								OFFSET 3.483560 -0.000000 -0.000000
								CHANNELS 3 Zrotation Yrotation Xrotation
								JOINT LeftFingerBase
								{
									OFFSET 0.000000 0.000000 0.000000
									CHANNELS 3 Zrotation Yrotation Xrotation
									JOINT LeftHandIndex1
									{
										OFFSET 0.715260 -0.000000 -0.000000
										CHANNELS 3 Zrotation Yrotation Xrotation
										End Site
										{
											OFFSET 0.000000 0.000000 0.000000
										}
									}
								}
								JOINT LThumb
								{
									OFFSET 0.000000 0.000000 0.000000
									CHANNELS 3 Zrotation Yrotation Xrotation
									End Site
									{
										OFFSET 0.000000 0.000000 0.000000
									}
								}
							}
						}
					}
				}
				JOINT RightShoulder
				{
					OFFSET 0.000000 0.000000 0.000000
					CHANNELS 3 Zrotation Yrotation Xrotation
					JOINT RightArm
					{
						OFFSET -3.136600 1.374050 -0.404650
						CHANNELS 3 Zrotation Yrotation Xrotation
						JOINT RightForeArm
						{
							OFFSET -5.241900 -0.000000 -0.000000
							CHANNELS 3 Zrotation Yrotation Xrotation
							JOINT RightHand
							{
								OFFSET -3.444170 -0.000000 -0.000000
								CHANNELS 3 Zrotation Yrotation Xrotation
								JOINT RightFingerBase
								{
									OFFSET 0.000000 0.000000 0.000000
									CHANNELS 3 Zrotation Yrotation Xrotation
									JOINT RightHandIndex1
									{
										OFFSET -0.622530 -0.000000 -0.000000
										CHANNELS 3 Zrotation Yrotation Xrotation
										End Site
										{
											OFFSET 0.000000 0.000000 0.000000
										}
									}
								}
								JOINT RThumb
								{
									OFFSET 0.000000 0.000000 0.000000
									CHANNELS 3 Zrotation Yrotation Xrotation
									End Site
									{
										OFFSET 0.000000 0.000000 0.000000
									}
								}
							}
						}
					}
				}
			}
		}
	}
}
MOTION
Frames: 5
Frame Time: 0.008333
0.124469 17.243407 34.253522 2.090929 7.414875 19.014241 -3.091889 -2.121699 -0.464417 -18.539474 4.533282 -13.688155 0.045896 8.213776 22.204617 3.159528 -15.726126 -10.590764 0.087047 -1.901663 -5.233901 -0.106927 2.501780 -4.168742 12.828771 5.961140 -45.011604 -0.011707 -9.980590 24.347926 -0.016295 -2.001692 -4.385132 -0.108928 2.122831 -5.845445 -2.538589 -1.278682 -6.980153 0.813519 -1.757413 -9.760212 -0.099039 -0.659162 -0.638004 -3.052589 -1.881813 -7.214167 7.820395 -3.197610 10.665021 2.021154 -1.283077 3.352100 12.816562 6.896074 -0.841106 -94.494847 -12.644717 41.583211 23.431754 -41.513710 -8.493188 0.192163 -0.452757 -17.420623 23.233293 -14.681478 -5.979332 -7.125000 0.000000 0.000000 -2.907785 14.652560 2.080329 -13.715868 -6.579950 1.610450 106.666384 -22.259807 -26.079476 -3.618267 15.217644 0.518290 0.154847 2.430499 27.771011 -157.304242 64.022005 -158.267938 7.125000 0.000000 0.000000 165.215351 38.370569 -177.521438
0.124622 17.232788 34.354685 2.069093 7.731845 19.065151 -3.105060 -2.085580 -0.410025 -18.370723 4.430775 -13.126744 -0.015075 8.061762 21.799063 3.135921 -15.636985 -10.428249 0.104447 -2.049688 -5.644126 -0.093727 2.508126 -4.194962 12.752302 5.897189 -45.043864 0.145621 -9.644721 23.347041 -0.069446 -1.646501 -4.099494 -0.095973 1.997167 -5.497788 -2.434078 -1.338540 -6.979345 0.835038 -1.847591 -9.774686 -0.127248 -0.708570 -0.677174 -3.006860 -1.882057 -7.134334 7.787333 -3.197578 10.605301 1.998197 -1.286006 3.303064 12.805573 6.880515 -0.855766 -94.387711 -13.041061 41.932106 23.809856 -41.877313 -8.712310 0.191916 -0.446447 -17.562363 23.298118 -14.778310 -6.040211 -7.125000 0.000000 0.000000 -2.870051 14.534277 2.060535 -13.689971 -6.572349 1.623116 106.679247 -22.574177 -26.239969 -3.624730 15.202267 0.522854 0.139283 2.430362 27.466124 -157.024617 64.099589 -157.994356 7.125000 0.000000 0.000000 165.268310 38.462613 -177.565141
0.127559 17.223031 34.458832 1.941597 8.170876 19.113474 -3.116192 -2.048672 -0.358480 -18.059608 4.276834 -12.544590 -0.075125 7.905382 21.382050 3.128425 -15.484688 -10.406344 0.153445 -2.484214 -6.847709 -0.082907 2.505336 -4.217654 12.867719 5.665911 -45.137339 0.279199 -9.343107 22.460908 -0.137273 -1.199336 -3.953761 -0.088589 1.918446 -5.280246 -2.159194 -1.411230 -7.072755 0.875778 -1.975230 -9.765951 -0.215076 -0.783357 -0.614093 -2.946132 -1.872276 -7.128848 7.743203 -3.180960 10.547397 1.970796 -1.279643 3.266374 12.806808 6.867862 -0.867393 -94.307739 -13.480463 42.246154 24.171000 -42.224244 -8.926400 0.195365 -0.439273 -17.743091 23.407865 -14.788521 -6.077551 -7.125000 0.000000 0.000000 -2.799086 14.504228 2.011259 -13.670179 -6.572465 1.634971 106.667454 -22.816433 -26.399716 -3.595442 15.136305 0.534708 0.126657 2.435138 27.194134 -156.800856 64.183183 -157.770127 7.125000 0.000000 0.000000 165.297384 38.560656 -177.606569
0.130469 17.213192 34.563464 1.867987 8.595346 19.177370 -3.125926 -2.012681 -0.309181 -17.809382 4.122621 -11.978049 -0.133713 7.754860 20.979019 3.119424 -15.308627 -10.420547 0.223167 -2.995660 -8.270356 -0.074707 2.505132 -4.241976 12.928906 5.426512 -45.240469 0.404458 -9.049626 21.601674 -0.201404 -0.775864 -3.798696 -0.094196 1.961544 -5.399860 -1.946574 -1.492298 -7.179575 0.911338 -2.104703 -9.758013 -0.283410 -0.858218 -0.542052 -2.897738 -1.864754 -7.139649 7.706305 -3.167371 10.496046 1.948503 -1.274423 3.236826 12.806236 6.856241 -0.879271 -94.235256 -13.910386 42.531999 24.528854 -42.566682 -9.140257 0.197539 -0.431896 -17.894266 23.485470 -14.792795 -6.103683 -7.125000 0.000000 0.000000 -2.749057 14.483505 1.976492 -13.648300 -6.573350 1.646849 106.651230 -23.079247 -26.397688 -3.593293 15.122209 0.539934 0.106497 2.433658 26.774242 -156.619719 64.236995 -157.592454 7.125000 0.000000 0.000000 165.330412 38.622296 -177.635156
0.133307 17.203136 34.669404 1.939865 8.980503 19.283314 -3.131887 -1.979164 -0.265951 -17.723557 3.967674 -11.453663 -0.188352 7.620156 20.613738 3.106358 -15.068404 -10.532241 0.348843 -3.714791 -10.284472 -0.073581 2.511916 -4.270701 12.843668 5.165185 -45.369672 0.507253 -8.778102 20.815070 -0.255557 -0.416361 -3.618437 -0.134880 2.333556 -6.429791 -1.902071 -1.595988 -7.322602 0.932911 -2.239129 -9.752227 -0.299114 -0.933279 -0.445819 -2.882643 -1.863334 -7.194422 7.688929 -3.161961 10.462387 1.940004 -1.272286 3.226562 12.800782 6.847406 -0.891829 -94.182993 -14.314716 42.741693 24.877824 -42.896993 -9.353488 0.196270 -0.423967 -17.965645 23.476291 -14.781042 -6.099549 -7.125000 0.000000 0.000000 -2.755559 14.487964 1.980905 -13.620786 -6.576311 1.658791 106.623040 -23.397566 -25.958867 -3.664420 15.248149 0.527263 0.065996 2.415285 25.955014 -156.553665 64.210396 -157.540484 7.125000 0.000000 0.000000 165.374115 38.585652 -177.629072
